<mxfile host="www.draw.io" modified="2019-11-29T13:33:46.920Z" agent="Mozilla/5.0 (Windows NT 10.0; Win64; x64) AppleWebKit/537.36 (KHTML, like Gecko) Chrome/78.0.3904.108 Safari/537.36" etag="0tFV5STjgtkE7A9zXEaI" version="12.3.3" type="github" pages="1">
  <diagram name="Page-1" id="b5b7bab2-c9e2-2cf4-8b2a-24fd1a2a6d21">
    <mxGraphModel dx="2435" dy="1917" grid="1" gridSize="10" guides="1" tooltips="1" connect="1" arrows="1" fold="1" page="1" pageScale="1" pageWidth="1027" pageHeight="1169" background="#ffffff" math="0" shadow="0">
      <root>
        <mxCell id="0"/>
        <mxCell id="1" parent="0"/>
        <mxCell id="A2BCTbo7lUN5HEoxAGUj-3" value="&lt;&lt;abstract&gt;&gt;&#xa;Car" style="swimlane;fontStyle=0;childLayout=stackLayout;horizontal=1;startSize=26;fillColor=none;horizontalStack=0;resizeParent=1;resizeParentMax=0;resizeLast=0;collapsible=1;marginBottom=0;" parent="1" vertex="1">
          <mxGeometry x="405" y="190" width="190" height="190" as="geometry"/>
        </mxCell>
        <mxCell id="A2BCTbo7lUN5HEoxAGUj-4" value="+ Car(int nrDoors,&#xa; double enginePower, Color color, &#xa;String modelName, Size size)&#xa;+ Car(int nrDoors, &#xa;double enginePower, Color color, &#xa;String modelName, Size size,&#xa;double xPos, double yPos)&#xa;+loadSelf():void&#xa;+unloadSelf():void&#xa;+followTransport(double speed,&#xa;double direction):void" style="text;strokeColor=none;fillColor=none;align=left;verticalAlign=top;spacingLeft=4;spacingRight=4;overflow=hidden;rotatable=0;points=[[0,0.5],[1,0.5]];portConstraint=eastwest;" parent="A2BCTbo7lUN5HEoxAGUj-3" vertex="1">
          <mxGeometry y="26" width="190" height="164" as="geometry"/>
        </mxCell>
        <mxCell id="A2BCTbo7lUN5HEoxAGUj-7" value="«interface»&lt;br&gt;&lt;b&gt;Transportable&lt;br&gt;&lt;/b&gt;&lt;hr&gt;+ loadSelf():void&lt;br&gt;+unloadSelf():void&lt;br&gt;+setX(double newX):void&lt;br&gt;+setY(double newY):void&lt;br&gt;+getX():double&lt;br&gt;+getY():double&lt;br&gt;+getSize():Size&lt;br&gt;followTranspore(double speed,&lt;br&gt;double direction):void" style="html=1;" parent="1" vertex="1">
          <mxGeometry x="390" y="-40" width="170" height="180" as="geometry"/>
        </mxCell>
        <mxCell id="A2BCTbo7lUN5HEoxAGUj-8" value="«interface»&lt;br&gt;&lt;b&gt;ITurbo&lt;br&gt;&lt;/b&gt;&lt;hr&gt;+setTurboOn():void&lt;br&gt;+setTurboOff():void" style="html=1;" parent="1" vertex="1">
          <mxGeometry x="285" y="657" width="110" height="73" as="geometry"/>
        </mxCell>
        <mxCell id="A2BCTbo7lUN5HEoxAGUj-9" value="«interface»&lt;br&gt;&lt;b&gt;Flatbed&lt;br&gt;&lt;/b&gt;&lt;hr&gt;+lowerBed():void&lt;br&gt;+raiseBed():void" style="html=1;" parent="1" vertex="1">
          <mxGeometry x="765" y="650" width="110" height="80" as="geometry"/>
        </mxCell>
        <mxCell id="A2BCTbo7lUN5HEoxAGUj-10" value="«interface»&lt;br&gt;&lt;b&gt;Engine&lt;br&gt;&lt;/b&gt;&lt;hr&gt;+startEngine(): void&lt;br&gt;+stopEngine(): void" style="html=1;" parent="1" vertex="1">
          <mxGeometry x="830" y="20" width="110" height="80" as="geometry"/>
        </mxCell>
        <mxCell id="A2BCTbo7lUN5HEoxAGUj-11" value="«interface»&lt;br&gt;&lt;b&gt;Movable&lt;br&gt;&lt;/b&gt;&lt;hr&gt;+move(): void&lt;br&gt;+turnLeft(): void&lt;br&gt;+turnRight(): void" style="html=1;" parent="1" vertex="1">
          <mxGeometry x="575" y="20" width="110" height="100" as="geometry"/>
        </mxCell>
        <mxCell id="A2BCTbo7lUN5HEoxAGUj-12" value="" style="endArrow=block;dashed=1;endFill=0;endSize=12;html=1;entryX=0.5;entryY=1;entryDx=0;entryDy=0;exitX=0.5;exitY=0;exitDx=0;exitDy=0;" parent="1" source="A2BCTbo7lUN5HEoxAGUj-3" target="A2BCTbo7lUN5HEoxAGUj-7" edge="1">
          <mxGeometry width="160" relative="1" as="geometry">
            <mxPoint x="560" y="160" as="sourcePoint"/>
            <mxPoint x="410" y="373" as="targetPoint"/>
          </mxGeometry>
        </mxCell>
        <mxCell id="A2BCTbo7lUN5HEoxAGUj-13" value="MotorVehicle" style="swimlane;fontStyle=1;align=center;verticalAlign=top;childLayout=stackLayout;horizontal=1;startSize=26;horizontalStack=0;resizeParent=1;resizeParentMax=0;resizeLast=0;collapsible=1;marginBottom=0;" parent="1" vertex="1">
          <mxGeometry x="670" y="151" width="250" height="204" as="geometry"/>
        </mxCell>
        <mxCell id="A2BCTbo7lUN5HEoxAGUj-15" value="" style="line;strokeWidth=1;fillColor=none;align=left;verticalAlign=middle;spacingTop=-1;spacingLeft=3;spacingRight=3;rotatable=0;labelPosition=right;points=[];portConstraint=eastwest;" parent="A2BCTbo7lUN5HEoxAGUj-13" vertex="1">
          <mxGeometry y="26" width="250" height="8" as="geometry"/>
        </mxCell>
        <mxCell id="A2BCTbo7lUN5HEoxAGUj-16" value="+ MotorVehicle(double enginePower,&#xa;Color color, String modelName, Size size)&#xa;+ MotorVehicle(double enginePower,&#xa;Color color, String modelName, Size size,&#xa;double xPos, double yPos)&#xa;# speedFactor(): double&#xa;+turnLeft():void&#xa;+turnRight():void&#xa;+move():void&#xa;+startEngine():void&#xa;+stopEngine():void" style="text;strokeColor=none;fillColor=none;align=left;verticalAlign=top;spacingLeft=4;spacingRight=4;overflow=hidden;rotatable=0;points=[[0,0.5],[1,0.5]];portConstraint=eastwest;" parent="A2BCTbo7lUN5HEoxAGUj-13" vertex="1">
          <mxGeometry y="34" width="250" height="170" as="geometry"/>
        </mxCell>
        <mxCell id="A2BCTbo7lUN5HEoxAGUj-17" value="" style="endArrow=block;dashed=1;endFill=0;endSize=12;html=1;exitX=0.5;exitY=0;exitDx=0;exitDy=0;strokeColor=#000000;entryX=0.5;entryY=1;entryDx=0;entryDy=0;" parent="1" source="A2BCTbo7lUN5HEoxAGUj-13" target="A2BCTbo7lUN5HEoxAGUj-10" edge="1">
          <mxGeometry width="160" relative="1" as="geometry">
            <mxPoint x="250" y="430" as="sourcePoint"/>
            <mxPoint x="870" y="220" as="targetPoint"/>
          </mxGeometry>
        </mxCell>
        <mxCell id="A2BCTbo7lUN5HEoxAGUj-18" value="Extends" style="endArrow=block;endSize=16;endFill=0;html=1;exitX=1;exitY=0.5;exitDx=0;exitDy=0;" parent="1" source="A2BCTbo7lUN5HEoxAGUj-4" target="A2BCTbo7lUN5HEoxAGUj-16" edge="1">
          <mxGeometry width="160" relative="1" as="geometry">
            <mxPoint x="590" y="314" as="sourcePoint"/>
            <mxPoint x="570" y="530" as="targetPoint"/>
          </mxGeometry>
        </mxCell>
        <mxCell id="A2BCTbo7lUN5HEoxAGUj-19" value="Saab95" style="swimlane;fontStyle=1;align=center;verticalAlign=top;childLayout=stackLayout;horizontal=1;startSize=26;horizontalStack=0;resizeParent=1;resizeParentMax=0;resizeLast=0;collapsible=1;marginBottom=0;" parent="1" vertex="1">
          <mxGeometry x="260" y="490" width="160" height="130" as="geometry"/>
        </mxCell>
        <mxCell id="A2BCTbo7lUN5HEoxAGUj-21" value="" style="line;strokeWidth=1;fillColor=none;align=left;verticalAlign=middle;spacingTop=-1;spacingLeft=3;spacingRight=3;rotatable=0;labelPosition=right;points=[];portConstraint=eastwest;" parent="A2BCTbo7lUN5HEoxAGUj-19" vertex="1">
          <mxGeometry y="26" width="160" height="8" as="geometry"/>
        </mxCell>
        <mxCell id="A2BCTbo7lUN5HEoxAGUj-22" value="+Saab95()&#xa;+Saab95(double xPos, &#xa;double yPos)&#xa;+setTurboOn():void&#xa;+setTurboOff():void&#xa;#speedFactor(): double" style="text;strokeColor=none;fillColor=none;align=left;verticalAlign=top;spacingLeft=4;spacingRight=4;overflow=hidden;rotatable=0;points=[[0,0.5],[1,0.5]];portConstraint=eastwest;" parent="A2BCTbo7lUN5HEoxAGUj-19" vertex="1">
          <mxGeometry y="34" width="160" height="96" as="geometry"/>
        </mxCell>
        <mxCell id="A2BCTbo7lUN5HEoxAGUj-23" value="" style="endArrow=block;dashed=1;endFill=0;endSize=12;html=1;exitX=0.5;exitY=0;exitDx=0;exitDy=0;entryX=0.5;entryY=1;entryDx=0;entryDy=0;" parent="1" source="A2BCTbo7lUN5HEoxAGUj-13" target="A2BCTbo7lUN5HEoxAGUj-11" edge="1">
          <mxGeometry width="160" relative="1" as="geometry">
            <mxPoint x="250" y="540" as="sourcePoint"/>
            <mxPoint x="750" y="180" as="targetPoint"/>
          </mxGeometry>
        </mxCell>
        <mxCell id="A2BCTbo7lUN5HEoxAGUj-24" value="Extends" style="endArrow=block;endSize=16;endFill=0;html=1;exitX=0.5;exitY=0;exitDx=0;exitDy=0;" parent="1" source="A2BCTbo7lUN5HEoxAGUj-19" target="A2BCTbo7lUN5HEoxAGUj-4" edge="1">
          <mxGeometry width="160" relative="1" as="geometry">
            <mxPoint x="380" y="390" as="sourcePoint"/>
            <mxPoint x="519" y="360" as="targetPoint"/>
            <Array as="points">
              <mxPoint x="519" y="490"/>
            </Array>
          </mxGeometry>
        </mxCell>
        <mxCell id="A2BCTbo7lUN5HEoxAGUj-27" value="Volvo240" style="swimlane;fontStyle=1;align=center;verticalAlign=top;childLayout=stackLayout;horizontal=1;startSize=26;horizontalStack=0;resizeParent=1;resizeParentMax=0;resizeLast=0;collapsible=1;marginBottom=0;" parent="1" vertex="1">
          <mxGeometry x="660" y="450" width="160" height="100" as="geometry"/>
        </mxCell>
        <mxCell id="A2BCTbo7lUN5HEoxAGUj-29" value="" style="line;strokeWidth=1;fillColor=none;align=left;verticalAlign=middle;spacingTop=-1;spacingLeft=3;spacingRight=3;rotatable=0;labelPosition=right;points=[];portConstraint=eastwest;" parent="A2BCTbo7lUN5HEoxAGUj-27" vertex="1">
          <mxGeometry y="26" width="160" height="8" as="geometry"/>
        </mxCell>
        <mxCell id="A2BCTbo7lUN5HEoxAGUj-30" value="+Volvo240()&#xa;+Volvo240(double xPos,&#xa; double yPos)&#xa;#speedFactor():double" style="text;strokeColor=none;fillColor=none;align=left;verticalAlign=top;spacingLeft=4;spacingRight=4;overflow=hidden;rotatable=0;points=[[0,0.5],[1,0.5]];portConstraint=eastwest;" parent="A2BCTbo7lUN5HEoxAGUj-27" vertex="1">
          <mxGeometry y="34" width="160" height="66" as="geometry"/>
        </mxCell>
        <mxCell id="A2BCTbo7lUN5HEoxAGUj-31" value="Scania" style="swimlane;fontStyle=1;align=center;verticalAlign=top;childLayout=stackLayout;horizontal=1;startSize=26;horizontalStack=0;resizeParent=1;resizeParentMax=0;resizeLast=0;collapsible=1;marginBottom=0;" parent="1" vertex="1">
          <mxGeometry x="480" y="639" width="160" height="150" as="geometry"/>
        </mxCell>
        <mxCell id="A2BCTbo7lUN5HEoxAGUj-33" value="" style="line;strokeWidth=1;fillColor=none;align=left;verticalAlign=middle;spacingTop=-1;spacingLeft=3;spacingRight=3;rotatable=0;labelPosition=right;points=[];portConstraint=eastwest;" parent="A2BCTbo7lUN5HEoxAGUj-31" vertex="1">
          <mxGeometry y="26" width="160" height="8" as="geometry"/>
        </mxCell>
        <mxCell id="A2BCTbo7lUN5HEoxAGUj-34" value="+Scania()&#xa;+Scania(double xPos, &#xa;double yPos)&#xa;+lowerBed():void&#xa;+raiseBed():void&#xa;+setTurboOn():void&#xa;+setTurboOff():void&#xa;#speedFactor();double" style="text;strokeColor=none;fillColor=none;align=left;verticalAlign=top;spacingLeft=4;spacingRight=4;overflow=hidden;rotatable=0;points=[[0,0.5],[1,0.5]];portConstraint=eastwest;" parent="A2BCTbo7lUN5HEoxAGUj-31" vertex="1">
          <mxGeometry y="34" width="160" height="116" as="geometry"/>
        </mxCell>
        <mxCell id="A2BCTbo7lUN5HEoxAGUj-37" value="Extends" style="endArrow=block;endSize=16;endFill=0;html=1;exitX=0;exitY=0.5;exitDx=0;exitDy=0;" parent="1" target="A2BCTbo7lUN5HEoxAGUj-4" edge="1">
          <mxGeometry width="160" relative="1" as="geometry">
            <mxPoint x="660" y="489" as="sourcePoint"/>
            <mxPoint x="500" y="380" as="targetPoint"/>
            <Array as="points">
              <mxPoint x="519" y="490"/>
            </Array>
          </mxGeometry>
        </mxCell>
        <mxCell id="A2BCTbo7lUN5HEoxAGUj-38" value="Extends" style="endArrow=block;endSize=16;endFill=0;html=1;exitX=0.25;exitY=0;exitDx=0;exitDy=0;entryX=0.624;entryY=0.994;entryDx=0;entryDy=0;entryPerimeter=0;" parent="1" source="A2BCTbo7lUN5HEoxAGUj-31" target="A2BCTbo7lUN5HEoxAGUj-4" edge="1">
          <mxGeometry width="160" relative="1" as="geometry">
            <mxPoint x="250" y="600" as="sourcePoint"/>
            <mxPoint x="520" y="353" as="targetPoint"/>
            <Array as="points">
              <mxPoint x="520" y="480"/>
            </Array>
          </mxGeometry>
        </mxCell>
        <mxCell id="A2BCTbo7lUN5HEoxAGUj-39" value="" style="endArrow=block;dashed=1;endFill=0;endSize=12;html=1;exitX=0.5;exitY=0;exitDx=0;exitDy=0;" parent="1" source="A2BCTbo7lUN5HEoxAGUj-8" target="A2BCTbo7lUN5HEoxAGUj-19" edge="1">
          <mxGeometry width="160" relative="1" as="geometry">
            <mxPoint x="250" y="600" as="sourcePoint"/>
            <mxPoint x="410" y="600" as="targetPoint"/>
          </mxGeometry>
        </mxCell>
        <mxCell id="A2BCTbo7lUN5HEoxAGUj-40" value="" style="endArrow=block;dashed=1;endFill=0;endSize=12;html=1;exitX=1;exitY=0.5;exitDx=0;exitDy=0;" parent="1" source="A2BCTbo7lUN5HEoxAGUj-8" edge="1">
          <mxGeometry width="160" relative="1" as="geometry">
            <mxPoint x="250" y="780" as="sourcePoint"/>
            <mxPoint x="480" y="678" as="targetPoint"/>
          </mxGeometry>
        </mxCell>
        <mxCell id="A2BCTbo7lUN5HEoxAGUj-41" value="" style="endArrow=block;dashed=1;endFill=0;endSize=12;html=1;exitX=0;exitY=0.5;exitDx=0;exitDy=0;entryX=1;entryY=0.5;entryDx=0;entryDy=0;" parent="1" source="A2BCTbo7lUN5HEoxAGUj-9" edge="1">
          <mxGeometry width="160" relative="1" as="geometry">
            <mxPoint x="250" y="780" as="sourcePoint"/>
            <mxPoint x="640" y="678" as="targetPoint"/>
          </mxGeometry>
        </mxCell>
        <mxCell id="A2BCTbo7lUN5HEoxAGUj-48" value="Size" style="swimlane;fontStyle=0;childLayout=stackLayout;horizontal=1;startSize=26;fillColor=none;horizontalStack=0;resizeParent=1;resizeParentMax=0;resizeLast=0;collapsible=1;marginBottom=0;" parent="1" vertex="1">
          <mxGeometry x="885" y="423" width="140" height="140" as="geometry"/>
        </mxCell>
        <mxCell id="A2BCTbo7lUN5HEoxAGUj-50" value="+ TINY" style="text;strokeColor=none;fillColor=none;align=left;verticalAlign=top;spacingLeft=4;spacingRight=4;overflow=hidden;rotatable=0;points=[[0,0.5],[1,0.5]];portConstraint=eastwest;" parent="A2BCTbo7lUN5HEoxAGUj-48" vertex="1">
          <mxGeometry y="26" width="140" height="26" as="geometry"/>
        </mxCell>
        <mxCell id="A2BCTbo7lUN5HEoxAGUj-49" value="+ SMALL" style="text;strokeColor=none;fillColor=none;align=left;verticalAlign=top;spacingLeft=4;spacingRight=4;overflow=hidden;rotatable=0;points=[[0,0.5],[1,0.5]];portConstraint=eastwest;" parent="A2BCTbo7lUN5HEoxAGUj-48" vertex="1">
          <mxGeometry y="52" width="140" height="26" as="geometry"/>
        </mxCell>
        <mxCell id="A2BCTbo7lUN5HEoxAGUj-51" value="+ MEDIUM&#xa;+ BIG&#xa;+ GIANT" style="text;strokeColor=none;fillColor=none;align=left;verticalAlign=top;spacingLeft=4;spacingRight=4;overflow=hidden;rotatable=0;points=[[0,0.5],[1,0.5]];portConstraint=eastwest;" parent="A2BCTbo7lUN5HEoxAGUj-48" vertex="1">
          <mxGeometry y="78" width="140" height="62" as="geometry"/>
        </mxCell>
        <mxCell id="A2BCTbo7lUN5HEoxAGUj-53" style="edgeStyle=orthogonalEdgeStyle;rounded=0;orthogonalLoop=1;jettySize=auto;html=1;exitX=1;exitY=0.5;exitDx=0;exitDy=0;entryX=0.5;entryY=0;entryDx=0;entryDy=0;endArrow=open;endFill=0;" parent="1" target="A2BCTbo7lUN5HEoxAGUj-48" edge="1">
          <mxGeometry relative="1" as="geometry">
            <mxPoint x="920" y="190" as="sourcePoint"/>
          </mxGeometry>
        </mxCell>
        <mxCell id="A2BCTbo7lUN5HEoxAGUj-54" value="Timer" style="html=1;" parent="1" vertex="1">
          <mxGeometry x="190" y="295" width="110" height="50" as="geometry"/>
        </mxCell>
        <mxCell id="A2BCTbo7lUN5HEoxAGUj-55" value="CarView" style="swimlane;fontStyle=1;align=center;verticalAlign=top;childLayout=stackLayout;horizontal=1;startSize=26;horizontalStack=0;resizeParent=1;resizeParentMax=0;resizeLast=0;collapsible=1;marginBottom=0;" parent="1" vertex="1">
          <mxGeometry x="30" y="657" width="170" height="130" as="geometry"/>
        </mxCell>
        <mxCell id="A2BCTbo7lUN5HEoxAGUj-56" value="~DrawPanel" style="text;strokeColor=none;fillColor=none;align=left;verticalAlign=top;spacingLeft=4;spacingRight=4;overflow=hidden;rotatable=0;points=[[0,0.5],[1,0.5]];portConstraint=eastwest;" parent="A2BCTbo7lUN5HEoxAGUj-55" vertex="1">
          <mxGeometry y="26" width="170" height="26" as="geometry"/>
        </mxCell>
        <mxCell id="A2BCTbo7lUN5HEoxAGUj-57" value="" style="line;strokeWidth=1;fillColor=none;align=left;verticalAlign=middle;spacingTop=-1;spacingLeft=3;spacingRight=3;rotatable=0;labelPosition=right;points=[];portConstraint=eastwest;" parent="A2BCTbo7lUN5HEoxAGUj-55" vertex="1">
          <mxGeometry y="52" width="170" height="8" as="geometry"/>
        </mxCell>
        <mxCell id="A2BCTbo7lUN5HEoxAGUj-58" value="+CarView(String frameName,&#xa;CarController cc)&#xa;-initComponents(String title):&#xa;void" style="text;strokeColor=none;fillColor=none;align=left;verticalAlign=top;spacingLeft=4;spacingRight=4;overflow=hidden;rotatable=0;points=[[0,0.5],[1,0.5]];portConstraint=eastwest;" parent="A2BCTbo7lUN5HEoxAGUj-55" vertex="1">
          <mxGeometry y="60" width="170" height="70" as="geometry"/>
        </mxCell>
        <mxCell id="A2BCTbo7lUN5HEoxAGUj-59" value="CarController" style="swimlane;fontStyle=1;align=center;verticalAlign=top;childLayout=stackLayout;horizontal=1;startSize=26;horizontalStack=0;resizeParent=1;resizeParentMax=0;resizeLast=0;collapsible=1;marginBottom=0;" parent="1" vertex="1">
          <mxGeometry x="30" y="404" width="160" height="200" as="geometry">
            <mxRectangle x="30" y="404" width="110" height="26" as="alternateBounds"/>
          </mxGeometry>
        </mxCell>
        <mxCell id="A2BCTbo7lUN5HEoxAGUj-60" value="~CarView" style="text;strokeColor=none;fillColor=none;align=left;verticalAlign=top;spacingLeft=4;spacingRight=4;overflow=hidden;rotatable=0;points=[[0,0.5],[1,0.5]];portConstraint=eastwest;" parent="A2BCTbo7lUN5HEoxAGUj-59" vertex="1">
          <mxGeometry y="26" width="160" height="26" as="geometry"/>
        </mxCell>
        <mxCell id="A2BCTbo7lUN5HEoxAGUj-61" value="" style="line;strokeWidth=1;fillColor=none;align=left;verticalAlign=middle;spacingTop=-1;spacingLeft=3;spacingRight=3;rotatable=0;labelPosition=right;points=[];portConstraint=eastwest;" parent="A2BCTbo7lUN5HEoxAGUj-59" vertex="1">
          <mxGeometry y="52" width="160" height="8" as="geometry"/>
        </mxCell>
        <mxCell id="A2BCTbo7lUN5HEoxAGUj-62" value="+main(String[] args):void&#xa;~gas(int amount):void&#xa;~brake(int amount):void&#xa;~turboOn():void&#xa;~turboOff():void&#xa;~liftBeds():void&#xa;~lowerBeds():void&#xa;~startCars():void&#xa;~stopCars():void" style="text;strokeColor=none;fillColor=none;align=left;verticalAlign=top;spacingLeft=4;spacingRight=4;overflow=hidden;rotatable=0;points=[[0,0.5],[1,0.5]];portConstraint=eastwest;" parent="A2BCTbo7lUN5HEoxAGUj-59" vertex="1">
          <mxGeometry y="60" width="160" height="140" as="geometry"/>
        </mxCell>
        <mxCell id="A2BCTbo7lUN5HEoxAGUj-63" style="edgeStyle=orthogonalEdgeStyle;rounded=0;orthogonalLoop=1;jettySize=auto;html=1;exitX=1;exitY=0.5;exitDx=0;exitDy=0;entryX=0.506;entryY=0.994;entryDx=0;entryDy=0;endArrow=open;endFill=0;entryPerimeter=0;" parent="1" source="A2BCTbo7lUN5HEoxAGUj-60" target="A2BCTbo7lUN5HEoxAGUj-4" edge="1">
          <mxGeometry relative="1" as="geometry">
            <mxPoint x="450" y="314" as="targetPoint"/>
          </mxGeometry>
        </mxCell>
        <mxCell id="A2BCTbo7lUN5HEoxAGUj-64" style="edgeStyle=orthogonalEdgeStyle;rounded=0;orthogonalLoop=1;jettySize=auto;html=1;exitX=1;exitY=0.5;exitDx=0;exitDy=0;endArrow=open;endFill=0;entryX=1;entryY=0.5;entryDx=0;entryDy=0;" parent="1" source="A2BCTbo7lUN5HEoxAGUj-62" target="A2BCTbo7lUN5HEoxAGUj-56" edge="1">
          <mxGeometry relative="1" as="geometry">
            <mxPoint x="250" y="630" as="targetPoint"/>
          </mxGeometry>
        </mxCell>
        <mxCell id="A2BCTbo7lUN5HEoxAGUj-65" style="edgeStyle=orthogonalEdgeStyle;rounded=0;orthogonalLoop=1;jettySize=auto;html=1;exitX=1;exitY=0.5;exitDx=0;exitDy=0;entryX=1;entryY=0.5;entryDx=0;entryDy=0;endArrow=open;endFill=0;" parent="1" source="A2BCTbo7lUN5HEoxAGUj-60" target="A2BCTbo7lUN5HEoxAGUj-54" edge="1">
          <mxGeometry relative="1" as="geometry"/>
        </mxCell>
        <mxCell id="A2BCTbo7lUN5HEoxAGUj-66" style="edgeStyle=orthogonalEdgeStyle;rounded=0;orthogonalLoop=1;jettySize=auto;html=1;exitX=1;exitY=0.5;exitDx=0;exitDy=0;endArrow=open;endFill=0;dashed=1;" parent="1" source="A2BCTbo7lUN5HEoxAGUj-60" target="A2BCTbo7lUN5HEoxAGUj-19" edge="1">
          <mxGeometry relative="1" as="geometry">
            <Array as="points">
              <mxPoint x="190" y="460"/>
              <mxPoint x="340" y="460"/>
            </Array>
          </mxGeometry>
        </mxCell>
        <mxCell id="A2BCTbo7lUN5HEoxAGUj-72" style="edgeStyle=orthogonalEdgeStyle;rounded=0;orthogonalLoop=1;jettySize=auto;html=1;exitX=1;exitY=0.5;exitDx=0;exitDy=0;entryX=0.5;entryY=0;entryDx=0;entryDy=0;dashed=1;endArrow=open;endFill=0;" parent="1" source="A2BCTbo7lUN5HEoxAGUj-60" target="A2BCTbo7lUN5HEoxAGUj-31" edge="1">
          <mxGeometry relative="1" as="geometry">
            <Array as="points">
              <mxPoint x="190" y="460"/>
              <mxPoint x="560" y="460"/>
            </Array>
          </mxGeometry>
        </mxCell>
        <mxCell id="A2BCTbo7lUN5HEoxAGUj-73" style="edgeStyle=orthogonalEdgeStyle;rounded=0;orthogonalLoop=1;jettySize=auto;html=1;exitX=1;exitY=0.5;exitDx=0;exitDy=0;dashed=1;endArrow=open;endFill=0;" parent="1" source="A2BCTbo7lUN5HEoxAGUj-60" target="A2BCTbo7lUN5HEoxAGUj-27" edge="1">
          <mxGeometry relative="1" as="geometry">
            <Array as="points">
              <mxPoint x="190" y="460"/>
              <mxPoint x="780" y="460"/>
            </Array>
          </mxGeometry>
        </mxCell>
        <mxCell id="A2BCTbo7lUN5HEoxAGUj-74" style="edgeStyle=orthogonalEdgeStyle;rounded=0;orthogonalLoop=1;jettySize=auto;html=1;exitX=1;exitY=0.5;exitDx=0;exitDy=0;entryX=1.019;entryY=0.154;entryDx=0;entryDy=0;entryPerimeter=0;endArrow=open;endFill=0;" parent="1" source="A2BCTbo7lUN5HEoxAGUj-56" target="A2BCTbo7lUN5HEoxAGUj-62" edge="1">
          <mxGeometry relative="1" as="geometry">
            <Array as="points">
              <mxPoint x="210" y="696"/>
              <mxPoint x="210" y="474"/>
              <mxPoint x="193" y="474"/>
            </Array>
          </mxGeometry>
        </mxCell>
        <mxCell id="A2BCTbo7lUN5HEoxAGUj-75" value="DrawPanel" style="swimlane;fontStyle=1;align=center;verticalAlign=top;childLayout=stackLayout;horizontal=1;startSize=26;horizontalStack=0;resizeParent=1;resizeParentMax=0;resizeLast=0;collapsible=1;marginBottom=0;" parent="1" vertex="1">
          <mxGeometry x="30" y="860" width="160" height="104" as="geometry"/>
        </mxCell>
        <mxCell id="A2BCTbo7lUN5HEoxAGUj-76" value="+int CAR_WIDTH&#xa;+int CAR_HEIGHT" style="text;strokeColor=none;fillColor=none;align=left;verticalAlign=top;spacingLeft=4;spacingRight=4;overflow=hidden;rotatable=0;points=[[0,0.5],[1,0.5]];portConstraint=eastwest;fontStyle=4" parent="A2BCTbo7lUN5HEoxAGUj-75" vertex="1">
          <mxGeometry y="26" width="160" height="44" as="geometry"/>
        </mxCell>
        <mxCell id="A2BCTbo7lUN5HEoxAGUj-77" value="" style="line;strokeWidth=1;fillColor=none;align=left;verticalAlign=middle;spacingTop=-1;spacingLeft=3;spacingRight=3;rotatable=0;labelPosition=right;points=[];portConstraint=eastwest;" parent="A2BCTbo7lUN5HEoxAGUj-75" vertex="1">
          <mxGeometry y="70" width="160" height="8" as="geometry"/>
        </mxCell>
        <mxCell id="A2BCTbo7lUN5HEoxAGUj-78" value="DrawPanel(int x, int y)&#xa;" style="text;strokeColor=none;fillColor=none;align=left;verticalAlign=top;spacingLeft=4;spacingRight=4;overflow=hidden;rotatable=0;points=[[0,0.5],[1,0.5]];portConstraint=eastwest;" parent="A2BCTbo7lUN5HEoxAGUj-75" vertex="1">
          <mxGeometry y="78" width="160" height="26" as="geometry"/>
        </mxCell>
        <mxCell id="A2BCTbo7lUN5HEoxAGUj-79" style="edgeStyle=orthogonalEdgeStyle;rounded=0;orthogonalLoop=1;jettySize=auto;html=1;exitX=1;exitY=0.5;exitDx=0;exitDy=0;entryX=0.75;entryY=0;entryDx=0;entryDy=0;endArrow=open;endFill=0;" parent="1" source="A2BCTbo7lUN5HEoxAGUj-58" target="A2BCTbo7lUN5HEoxAGUj-75" edge="1">
          <mxGeometry relative="1" as="geometry">
            <Array as="points">
              <mxPoint x="240" y="752"/>
              <mxPoint x="240" y="824"/>
              <mxPoint x="150" y="824"/>
            </Array>
          </mxGeometry>
        </mxCell>
        <mxCell id="A2BCTbo7lUN5HEoxAGUj-80" style="edgeStyle=orthogonalEdgeStyle;rounded=0;orthogonalLoop=1;jettySize=auto;html=1;exitX=1;exitY=0.5;exitDx=0;exitDy=0;entryX=1;entryY=0.5;entryDx=0;entryDy=0;endArrow=open;endFill=0;dashed=1;" parent="1" source="A2BCTbo7lUN5HEoxAGUj-62" target="A2BCTbo7lUN5HEoxAGUj-76" edge="1">
          <mxGeometry relative="1" as="geometry">
            <Array as="points">
              <mxPoint x="190" y="474"/>
              <mxPoint x="220" y="474"/>
              <mxPoint x="220" y="899"/>
            </Array>
          </mxGeometry>
        </mxCell>
        <mxCell id="50sDM0IluNqHPnj_dnaF-2" value="TimerListener" style="swimlane;fontStyle=1;align=center;verticalAlign=top;childLayout=stackLayout;horizontal=1;startSize=26;horizontalStack=0;resizeParent=1;resizeParentMax=0;resizeLast=0;collapsible=1;marginBottom=0;" parent="1" vertex="1">
          <mxGeometry x="125" y="105" width="160" height="84" as="geometry"/>
        </mxCell>
        <mxCell id="50sDM0IluNqHPnj_dnaF-4" value="" style="line;strokeWidth=1;fillColor=none;align=left;verticalAlign=middle;spacingTop=-1;spacingLeft=3;spacingRight=3;rotatable=0;labelPosition=right;points=[];portConstraint=eastwest;" parent="50sDM0IluNqHPnj_dnaF-2" vertex="1">
          <mxGeometry y="26" width="160" height="8" as="geometry"/>
        </mxCell>
        <mxCell id="50sDM0IluNqHPnj_dnaF-5" value="+ actionPerformed(&#xa;ActionEvent): void " style="text;strokeColor=none;fillColor=none;align=left;verticalAlign=top;spacingLeft=4;spacingRight=4;overflow=hidden;rotatable=0;points=[[0,0.5],[1,0.5]];portConstraint=eastwest;" parent="50sDM0IluNqHPnj_dnaF-2" vertex="1">
          <mxGeometry y="34" width="160" height="50" as="geometry"/>
        </mxCell>
        <mxCell id="50sDM0IluNqHPnj_dnaF-6" value="" style="endArrow=open;startArrow=circlePlus;endFill=0;startFill=0;endSize=8;html=1;exitX=0.5;exitY=0;exitDx=0;exitDy=0;entryX=0.513;entryY=1.077;entryDx=0;entryDy=0;entryPerimeter=0;" parent="1" source="A2BCTbo7lUN5HEoxAGUj-59" target="50sDM0IluNqHPnj_dnaF-5" edge="1">
          <mxGeometry width="160" relative="1" as="geometry">
            <mxPoint x="250" y="340" as="sourcePoint"/>
            <mxPoint x="290" y="330" as="targetPoint"/>
          </mxGeometry>
        </mxCell>
        <mxCell id="50sDM0IluNqHPnj_dnaF-7" value="Use" style="endArrow=open;endSize=12;dashed=1;html=1;exitX=0;exitY=0.5;exitDx=0;exitDy=0;entryX=0;entryY=0.5;entryDx=0;entryDy=0;" parent="1" target="A2BCTbo7lUN5HEoxAGUj-76" edge="1">
          <mxGeometry width="160" relative="1" as="geometry">
            <mxPoint x="125" y="144" as="sourcePoint"/>
            <mxPoint x="190" y="900" as="targetPoint"/>
            <Array as="points">
              <mxPoint x="10" y="197"/>
              <mxPoint x="10" y="580"/>
              <mxPoint y="899"/>
            </Array>
          </mxGeometry>
        </mxCell>
      </root>
    </mxGraphModel>
  </diagram>
</mxfile>
